<?xml version="1.0" encoding="UTF-8"?>
<svg width="500px" height="500px" viewBox="0 0 500 500" version="1.1" xmlns="http://www.w3.org/2000/svg" xmlns:xlink="http://www.w3.org/1999/xlink">
    <!-- Generator: Sketch 52.1 (67048) - http://www.bohemiancoding.com/sketch -->
    <title>BlueMatador-Logo-Stacked</title>
    <desc>Created with Sketch.</desc>
    <g id="BlueMatador-Logo-Stacked" stroke="none" stroke-width="1" fill="none" fill-rule="evenodd">
        <rect fill="#FFFFFF" x="0" y="0" width="500" height="500"></rect>
        <g id="bluematador-logo-stacked-blue-black-copy" transform="translate(50.000000, 102.000000)">
            <path d="M303.938536,87.4815926 C303.938536,84.7598091 303.938536,82.0031309 303.938536,79.2813474 C304.146625,63.4569715 295.674731,48.7643907 281.805852,40.8972209 C272.008262,35.1744965 261.259108,28.8934577 250.087036,22.4728401 C240.677121,17.0641677 230.950018,11.5508114 221.187672,6.17703368 C208.068489,-1.78826181 191.614795,-2.06891084 178.226299,5.44424581 C158.102473,16.5407478 138.190105,28.1606698 118.982601,39.3967505 L117.114715,40.4784849 C102.902578,47.9984527 94.1085918,62.7344704 94.312411,78.6881382 C94.312411,86.5394368 94.312411,94.4605247 94.312411,102.207139 C94.312411,105.673342 94.312411,109.162808 94.312411,112.675537 C94.312411,116.165004 94.312411,119.65447 94.312411,123.388198 C94.312411,131.309286 94.312411,139.509531 94.312411,147.570198 C94.6648423,164.005583 101.713468,176.846818 114.718182,184.698117 C134.877251,196.946143 156.551775,209.298852 179.177863,221.477089 C185.242253,224.797589 192.054612,226.549849 198.984501,226.571709 C206.586796,226.493003 214.040031,224.473845 220.623782,220.709406 C234.721033,212.788318 249.029743,204.762546 262.915535,196.666985 C269.470757,192.828573 275.990736,189.025055 282.404985,185.186642 C293.174408,179.13972 300.675777,168.670054 302.881242,156.607915 C303.348371,154.178847 303.619425,151.71681 303.691834,149.245142 C304.255724,127.36619 304.32621,107.162181 303.938536,87.4815926 Z M250.051793,185.186642 L242.157333,189.688053 L228.236297,197.469562 L222.703126,200.679871 C219.742703,202.38971 216.747037,204.169337 213.751372,205.809386 C204.749365,211.383714 193.347784,211.478125 184.252874,206.053649 C161.062895,193.003046 141.96112,182.150806 124.339556,171.961566 C115.566172,167.211233 110.147433,158.063634 110.242305,148.163407 C109.96036,131.274392 109.995603,114.106219 110.066089,97.4614655 C110.066089,91.4595839 110.066089,85.4577023 110.066089,79.4558207 C109.761174,69.1642639 115.392526,59.5963029 124.586258,54.7852957 L133.925687,49.411518 C151.194819,39.6061184 168.710654,29.4517722 185.944544,19.8557406 C189.530154,17.8280121 193.586492,16.7578187 197.715748,16.7501158 C203.280239,16.830353 208.725474,18.358717 213.50467,21.1817377 C222.573901,26.2996212 231.60789,31.4756625 240.606635,36.7098616 L255.021074,44.9798961 L262.739319,49.3766234 L272.113991,54.7155064 C280.882954,59.4167984 286.377572,68.4661257 286.457945,78.3391916 C286.457945,79.2813474 286.457945,80.2235032 286.457945,81.1656591 C262.680581,72.674625 238.856226,64.1952225 214.984881,55.7274516 C212.982526,55.1778128 210.838098,55.5083747 209.099279,56.6347127 C190.772852,70.5925769 172.516912,84.8993877 154.47243,99.3108825 C148.668918,104.113828 141.925762,107.677787 134.665792,109.779281 C127.828626,111.907855 121.132431,114.280692 114.400994,116.51395 L114.57721,117.072265 L142.983171,117.072265 L143.229873,118.433156 L130.718562,121.922622 C136.493653,122.005877 141.819369,125.024702 144.815813,129.9135 C148.798287,135.182593 153.979027,139.788689 157.045179,145.511413 C162.402134,155.526181 161.873487,155.770443 173.186531,155.351707 C173.679935,155.351707 174.208582,155.142339 173.750421,155.351707 L184.076658,132.635283 L199.266446,145.825465 L195.107757,154.130394 C200.951758,158.859061 206.506488,163.927739 211.742513,169.309571 C221.046699,179.987338 234.086656,177.963447 246.668453,181.522703 L242.333548,163.342584 C234.262872,164.843055 226.262682,167.180997 222.033507,156.887072 C224.852957,156.607915 227.566678,156.433442 230.209912,156.0496 C242.826952,154.235078 242.298305,154.54913 249.205958,165.052423 C254.104753,172.310512 256.007882,178.591551 250.051793,185.186642 Z M273.488473,171.612619 L269.259298,174.09014 C267.391412,166.762261 262.563104,160.132276 260.836191,152.560134 C265.878624,152.282083 270.902211,151.734603 275.885006,150.920085 C278.763408,150.296681 281.685074,149.888426 284.625302,149.698772 L286.704646,150.466455 C286.252215,159.274475 281.26079,167.234506 273.488473,171.54283 L273.488473,171.612619 Z" id="bluematador-icon" fill="#0093EE" fill-rule="nonzero"></path>
            <path d="M25.4936805,286.113821 C27.623489,283.859067 28.6883773,280.888907 28.6883773,277.203252 C28.6883773,273.517597 27.6341379,270.612477 25.5256274,268.487805 C23.417117,266.363133 20.9039807,265.300813 17.986143,265.300813 C15.0683053,265.300813 12.555169,266.384813 10.4466585,268.552846 C8.33814811,270.720878 7.28390871,273.647678 7.28390871,277.333333 C7.28390871,281.018989 8.33814811,283.956629 10.4466585,286.146341 C12.555169,288.336054 15.0576564,289.430894 17.954196,289.430894 C20.8507356,289.430894 23.363872,288.325214 25.4936805,286.113821 Z M19.5515444,258.861789 C24.2797193,258.861789 28.219806,260.563669 31.3719226,263.96748 C34.5240392,267.371291 36.1000739,271.794011 36.1000739,277.235772 C36.1000739,282.677534 34.5133903,287.143614 31.3399756,290.634146 C28.1665609,294.124679 24.2371232,295.869919 19.5515444,295.869919 C16.7827934,295.869919 14.3548481,295.208679 12.2676357,293.886179 C10.1804234,292.563679 8.51919765,290.796759 7.28390871,288.585366 L7.28390871,295.284553 L0,295.284553 L0,247.154472 L7.28390871,247.154472 L7.28390871,265.821138 C8.47660148,263.739827 10.1271783,262.059627 12.2356887,260.780488 C14.3441992,259.501349 16.7827934,258.861789 19.5515444,258.861789 Z M42.4215802,295.284553 L42.4215802,247.154472 L49.7054889,247.154472 L49.7054889,295.284553 L42.4215802,295.284553 Z M82.9902362,259.447154 L90.2741449,259.447154 L90.2741449,295.284553 L82.9902362,295.284553 L82.9902362,289.626016 C80.690043,293.745278 76.9416362,295.804878 71.7449035,295.804878 C67.7834596,295.804878 64.5142526,294.471558 61.9371843,291.804878 C59.360116,289.138198 58.0716012,285.398398 58.0716012,280.585366 L58.0716012,259.447154 L65.2916159,259.447154 L65.2916159,279.479675 C65.2916159,282.688363 66.0796333,285.149043 67.6556916,286.861789 C69.2317499,288.574534 71.3828242,289.430894 74.1089791,289.430894 C76.835134,289.430894 78.9968572,288.574534 80.5942136,286.861789 C82.19157,285.149043 82.9902362,282.688363 82.9902362,279.479675 L82.9902362,259.447154 Z M113.78312,295.869919 C108.67158,295.869919 104.518515,294.178879 101.323802,290.796748 C98.1290897,287.414617 96.5317573,282.926857 96.5317573,277.333333 C96.5317573,271.739809 98.1503875,267.262889 101.387696,263.902439 C104.625005,260.541989 108.810016,258.861789 113.942855,258.861789 C119.075693,258.861789 123.239407,260.476949 126.434119,263.707317 C129.628832,266.937686 131.226165,271.154446 131.226165,276.357724 C131.226165,277.615182 131.140973,278.785902 130.970589,279.869919 L104.007348,279.869919 C104.177732,282.861804 105.168079,285.235764 106.978416,286.99187 C108.788753,288.747976 111.056965,289.626016 113.78312,289.626016 C117.744564,289.626016 120.534571,287.956656 122.153226,284.617886 L130.01218,284.617886 C128.947276,287.913296 127.009179,290.612456 124.197832,292.715447 C121.386484,294.818439 117.914949,295.869919 113.78312,295.869919 Z M123.622786,274.796748 C123.58019,271.848224 122.621791,269.495944 120.747559,267.739837 C118.873328,265.983731 116.594467,265.105691 113.910908,265.105691 C111.227349,265.105691 108.980435,265.983731 107.170098,267.739837 C105.35976,269.495944 104.326819,271.848224 104.071242,274.796748 L123.622786,274.796748 Z M141.956352,259.772358 L141.956352,265.560976 C144.299142,261.268271 148.154037,259.121951 153.521155,259.121951 C156.289906,259.121951 158.771096,259.794031 160.964798,261.138211 C163.158501,262.482392 164.78778,264.455272 165.852685,267.056911 C167.045377,264.541993 168.759847,262.590793 170.996146,261.203252 C173.232445,259.815711 175.798826,259.121951 178.695366,259.121951 C182.571617,259.121951 185.808878,260.411911 188.407244,262.99187 C191.00561,265.571829 192.304774,269.289949 192.304774,274.146341 L192.304774,295.284553 L187.896092,295.284553 L187.896092,274.99187 C187.896092,271.089411 186.96964,268.119251 185.116706,266.081301 C183.263773,264.04335 180.729339,263.02439 177.513328,263.02439 C174.297317,263.02439 171.762883,264.04335 169.909949,266.081301 C168.057016,268.119251 167.130563,271.089411 167.130563,274.99187 L167.130563,295.284553 L162.721882,295.284553 L162.721882,274.99187 C162.721882,271.089411 161.795429,268.119251 159.942495,266.081301 C158.089562,264.04335 155.555128,263.02439 152.339117,263.02439 C149.123106,263.02439 146.588672,264.04335 144.735739,266.081301 C142.882805,268.119251 141.956352,271.089411 141.956352,274.99187 L141.956352,295.284553 L137.483777,295.284553 L137.483777,259.772358 L141.956352,259.772358 Z M225.07837,288.065041 C227.63414,285.37668 228.912006,281.86452 228.912006,277.528455 C228.912006,273.19239 227.644789,269.69107 225.110317,267.02439 C222.575845,264.35771 219.519615,263.02439 215.941537,263.02439 C212.363459,263.02439 209.317878,264.30351 206.804704,266.861789 C204.29153,269.420067 203.034962,272.878027 203.034962,277.235772 C203.034962,281.593518 204.302179,285.149038 206.836651,287.902439 C209.371123,290.65584 212.416704,292.03252 215.973484,292.03252 C219.530264,292.03252 222.565196,290.71004 225.07837,288.065041 Z M215.302598,295.934959 C210.446634,295.934959 206.421357,294.178879 203.226644,290.666667 C200.031931,287.154454 198.434599,282.677534 198.434599,277.235772 C198.434599,271.794011 200.021282,267.414651 203.194697,264.097561 C206.368111,260.780471 210.404038,259.121951 215.302598,259.121951 C218.454714,259.121951 221.223424,259.902431 223.608809,261.463415 C225.994195,263.024398 227.761909,265.040638 228.912006,267.512195 L228.912006,259.772358 L233.384582,259.772358 L233.384582,295.284553 L228.912006,295.284553 L228.912006,287.479675 C227.761909,289.951232 225.994195,291.978312 223.608809,293.560976 C221.223424,295.143639 218.454714,295.934959 215.302598,295.934959 Z M257.59639,263.349593 L247.948406,263.349593 L247.948406,286.894309 C247.948406,288.672096 248.28917,289.918696 248.970709,290.634146 C249.652247,291.349597 250.86622,291.707317 252.612663,291.707317 L257.59639,291.707317 L257.59639,295.284553 L251.654254,295.284553 C246.201944,295.284553 243.47583,292.487833 243.47583,286.894309 L243.47583,263.349593 L238.619891,263.349593 L238.619891,259.772358 L243.47583,259.772358 L243.47583,250.861789 L247.948406,250.861789 L247.948406,259.772358 L257.59639,259.772358 L257.59639,263.349593 Z M287.239183,288.065041 C289.794953,285.37668 291.072819,281.86452 291.072819,277.528455 C291.072819,273.19239 289.805602,269.69107 287.27113,267.02439 C284.736658,264.35771 281.680428,263.02439 278.10235,263.02439 C274.524272,263.02439 271.478691,264.30351 268.965517,266.861789 C266.452343,269.420067 265.195775,272.878027 265.195775,277.235772 C265.195775,281.593518 266.462992,285.149038 268.997464,287.902439 C271.531936,290.65584 274.577517,292.03252 278.134297,292.03252 C281.691077,292.03252 284.726009,290.71004 287.239183,288.065041 Z M277.463411,295.934959 C272.607447,295.934959 268.58217,294.178879 265.387457,290.666667 C262.192744,287.154454 260.595412,282.677534 260.595412,277.235772 C260.595412,271.794011 262.182095,267.414651 265.35551,264.097561 C268.528925,260.780471 272.564851,259.121951 277.463411,259.121951 C280.615527,259.121951 283.384237,259.902431 285.769622,261.463415 C288.155008,263.024398 289.922723,265.040638 291.072819,267.512195 L291.072819,259.772358 L295.545395,259.772358 L295.545395,295.284553 L291.072819,295.284553 L291.072819,287.479675 C289.922723,289.951232 288.155008,291.978312 285.769622,293.560976 C283.384237,295.143639 280.615527,295.934959 277.463411,295.934959 Z M328.63846,288.065041 C331.19423,285.37668 332.472096,281.86452 332.472096,277.528455 C332.472096,273.19239 331.204879,269.69107 328.670407,267.02439 C326.135935,264.35771 323.079706,263.02439 319.501627,263.02439 C315.923549,263.02439 312.877968,264.30351 310.364794,266.861789 C307.85162,269.420067 306.595052,272.878027 306.595052,277.235772 C306.595052,281.593518 307.862269,285.149038 310.396741,287.902439 C312.931214,290.65584 315.976794,292.03252 319.533574,292.03252 C323.090354,292.03252 326.125286,290.71004 328.63846,288.065041 Z M318.862688,295.934959 C314.006725,295.934959 309.981447,294.178879 306.786734,290.666667 C303.592021,287.154454 301.994689,282.677534 301.994689,277.235772 C301.994689,271.794011 303.581372,267.414651 306.754787,264.097561 C309.928202,260.780471 313.964128,259.121951 318.862688,259.121951 C322.014805,259.121951 324.783514,259.902431 327.1689,261.463415 C329.554285,263.024398 331.322,265.040638 332.472096,267.512195 L332.472096,247.154472 L336.944672,247.154472 L336.944672,295.284553 L332.472096,295.284553 L332.472096,287.479675 C331.322,289.951232 329.554285,291.978312 327.1689,293.560976 C324.783514,295.143639 322.014805,295.934959 318.862688,295.934959 Z M360.261965,292.292683 C363.88264,292.292683 367.013411,290.970203 369.654374,288.325203 C372.295336,285.680204 373.615798,282.070484 373.615798,277.495935 C373.615798,272.921386 372.35923,269.322506 369.846056,266.699187 C367.332881,264.075868 364.266003,262.764228 360.645329,262.764228 C357.024654,262.764228 354.000372,264.065028 351.57239,266.666667 C349.144408,269.268306 347.930435,272.888866 347.930435,277.528455 C347.930435,282.168045 349.080515,285.788605 351.380708,288.390244 C353.680901,290.991883 356.641291,292.292683 360.261965,292.292683 Z M360.261965,295.934959 C355.278213,295.934959 351.220989,294.243919 348.09017,290.861789 C344.959352,287.479658 343.393966,283.046098 343.393966,277.560976 C343.393966,272.075853 345.055192,267.631453 348.377693,264.227642 C351.700194,260.823831 355.853259,259.121951 360.837011,259.121951 C365.820762,259.121951 369.973827,260.823831 373.296328,264.227642 C376.618829,267.631453 378.280055,272.054173 378.280055,277.495935 C378.280055,282.937697 376.533638,287.371257 373.040752,290.796748 C369.547866,294.222239 365.288313,295.934959 360.261965,295.934959 Z M389.201925,259.772358 L389.201925,265.626016 C391.118752,261.289951 394.718075,259.121951 400,259.121951 L400,263.869919 L398.722121,263.869919 C395.655197,263.869919 393.301794,264.715439 391.661841,266.406504 C390.021889,268.097569 389.201925,271.002689 389.201925,275.121951 L389.201925,295.284553 L384.729349,295.284553 L384.729349,259.772358 L389.201925,259.772358 Z" id="bluematador-type" fill="#000000"></path>
        </g>
    </g>
</svg>